<svg xmlns="http://www.w3.org/2000/svg" width="20.226" height="20.226" viewBox="0 0 20.226 20.226">
  <g id="Group_123" data-name="Group 123" transform="translate(0 0)">
    <path id="Path_96" data-name="Path 96" d="M147.979,186.846l12.747,12.748a1.377,1.377,0,0,0,2.35-.973V186.515a2.019,2.019,0,0,0-2.019-2.019H148.952A1.377,1.377,0,0,0,147.979,186.846Z" transform="translate(-147.466 -182)" fill="#00c83c"/>
    <path id="Path_97" data-name="Path 97" d="M148.1,220.144h0a2.93,2.93,0,0,0,5-2.072h0a2.93,2.93,0,0,0-2.93-2.93h0A2.93,2.93,0,0,0,148.1,220.144Z" transform="translate(-147.238 -202.938)" fill="#00c83c"/>
  </g>
</svg>
